<?xml version="1.0" standalone="no"?>
<!DOCTYPE svg PUBLIC "-//W3C//DTD SVG 20010904//EN"
 "http://www.w3.org/TR/2001/REC-SVG-20010904/DTD/svg10.dtd">
<svg version="1.0" xmlns="http://www.w3.org/2000/svg"
 width="96.000000pt" height="96.000000pt" viewBox="0 0 96.000000 96.000000"
 preserveAspectRatio="xMidYMid meet">
<metadata>
Created by potrace 1.14, written by Peter Selinger 2001-2017
</metadata>
<g transform="translate(0.000000,96.000000) scale(0.100000,-0.100000)"
fill="#000000" stroke="none">
<path d="M237 745 c-69 -47 -135 -121 -148 -165 -7 -21 -10 -84 -8 -147 4
-100 7 -114 31 -149 49 -70 73 -79 240 -82 137 -4 147 -3 167 17 27 27 27 66
-1 85 -18 13 -19 16 -6 16 20 0 48 37 48 62 0 10 -9 27 -20 38 -20 20 -20 20
140 20 147 0 162 2 180 20 25 25 25 55 0 80 -18 18 -34 20 -187 21 l-168 0
134 42 c144 45 169 63 157 112 -12 48 -43 48 -205 6 l-148 -38 -51 48 c-61 59
-87 62 -155 14z"/>
</g>
</svg>
